<mxfile host="app.diagrams.net" modified="2020-11-14T15:38:09.495Z" agent="5.0 (Macintosh; Intel Mac OS X 10_15_7) AppleWebKit/537.36 (KHTML, like Gecko) Chrome/86.0.4240.198 Safari/537.36" etag="-wS7gsP1gymsA8O3hN-p" version="13.8.1" type="github">
  <diagram id="dGAuAdP_73gabNk0xSBT" name="Page-1">
    <mxGraphModel dx="925" dy="575" grid="1" gridSize="10" guides="1" tooltips="1" connect="1" arrows="1" fold="1" page="1" pageScale="1" pageWidth="1169" pageHeight="827" math="0" shadow="0">
      <root>
        <mxCell id="0" />
        <mxCell id="1" parent="0" />
        <mxCell id="LsbmYToU2O5M6cjVw-1U-3" style="edgeStyle=orthogonalEdgeStyle;rounded=0;orthogonalLoop=1;jettySize=auto;html=1;entryX=0;entryY=0.5;entryDx=0;entryDy=0;" edge="1" parent="1" source="LsbmYToU2O5M6cjVw-1U-1" target="LsbmYToU2O5M6cjVw-1U-2">
          <mxGeometry relative="1" as="geometry" />
        </mxCell>
        <mxCell id="LsbmYToU2O5M6cjVw-1U-5" style="edgeStyle=orthogonalEdgeStyle;rounded=0;orthogonalLoop=1;jettySize=auto;html=1;entryX=0;entryY=0.5;entryDx=0;entryDy=0;" edge="1" parent="1" source="LsbmYToU2O5M6cjVw-1U-1" target="LsbmYToU2O5M6cjVw-1U-4">
          <mxGeometry relative="1" as="geometry" />
        </mxCell>
        <mxCell id="LsbmYToU2O5M6cjVw-1U-7" style="edgeStyle=orthogonalEdgeStyle;rounded=0;orthogonalLoop=1;jettySize=auto;html=1;entryX=0;entryY=0.5;entryDx=0;entryDy=0;" edge="1" parent="1" source="LsbmYToU2O5M6cjVw-1U-1" target="LsbmYToU2O5M6cjVw-1U-6">
          <mxGeometry relative="1" as="geometry" />
        </mxCell>
        <mxCell id="LsbmYToU2O5M6cjVw-1U-9" style="edgeStyle=orthogonalEdgeStyle;rounded=0;orthogonalLoop=1;jettySize=auto;html=1;entryX=0;entryY=0.5;entryDx=0;entryDy=0;" edge="1" parent="1" source="LsbmYToU2O5M6cjVw-1U-1" target="LsbmYToU2O5M6cjVw-1U-8">
          <mxGeometry relative="1" as="geometry" />
        </mxCell>
        <mxCell id="LsbmYToU2O5M6cjVw-1U-11" style="edgeStyle=orthogonalEdgeStyle;rounded=0;orthogonalLoop=1;jettySize=auto;html=1;entryX=0;entryY=0.5;entryDx=0;entryDy=0;" edge="1" parent="1" source="LsbmYToU2O5M6cjVw-1U-1" target="LsbmYToU2O5M6cjVw-1U-10">
          <mxGeometry relative="1" as="geometry" />
        </mxCell>
        <mxCell id="LsbmYToU2O5M6cjVw-1U-1" value="Menu" style="rounded=0;whiteSpace=wrap;html=1;verticalAlign=top;" vertex="1" parent="1">
          <mxGeometry x="140" y="50" width="140" height="100" as="geometry" />
        </mxCell>
        <mxCell id="LsbmYToU2O5M6cjVw-1U-2" value="Competences" style="rounded=0;whiteSpace=wrap;html=1;fillColor=none;verticalAlign=top;" vertex="1" parent="1">
          <mxGeometry x="440" y="50" width="280" height="100" as="geometry" />
        </mxCell>
        <mxCell id="LsbmYToU2O5M6cjVw-1U-4" value="Materials" style="rounded=0;whiteSpace=wrap;html=1;verticalAlign=top;" vertex="1" parent="1">
          <mxGeometry x="440" y="160" width="280" height="100" as="geometry" />
        </mxCell>
        <mxCell id="LsbmYToU2O5M6cjVw-1U-6" value="Evaluation" style="rounded=0;whiteSpace=wrap;html=1;verticalAlign=top;" vertex="1" parent="1">
          <mxGeometry x="440" y="280" width="280" height="100" as="geometry" />
        </mxCell>
        <mxCell id="LsbmYToU2O5M6cjVw-1U-8" value="References" style="rounded=0;whiteSpace=wrap;html=1;verticalAlign=top;" vertex="1" parent="1">
          <mxGeometry x="440" y="400" width="140" height="100" as="geometry" />
        </mxCell>
        <mxCell id="LsbmYToU2O5M6cjVw-1U-10" value="References" style="rounded=0;whiteSpace=wrap;html=1;verticalAlign=top;" vertex="1" parent="1">
          <mxGeometry x="440" y="520" width="140" height="100" as="geometry" />
        </mxCell>
        <mxCell id="LsbmYToU2O5M6cjVw-1U-16" value="" style="edgeStyle=orthogonalEdgeStyle;rounded=0;orthogonalLoop=1;jettySize=auto;html=1;" edge="1" parent="1" source="LsbmYToU2O5M6cjVw-1U-12" target="LsbmYToU2O5M6cjVw-1U-14">
          <mxGeometry relative="1" as="geometry" />
        </mxCell>
        <mxCell id="LsbmYToU2O5M6cjVw-1U-12" value="ContentMenu" style="rounded=1;whiteSpace=wrap;html=1;fillColor=#dae8fc;strokeColor=#6c8ebf;" vertex="1" parent="1">
          <mxGeometry x="450" y="80" width="120" height="60" as="geometry" />
        </mxCell>
        <mxCell id="LsbmYToU2O5M6cjVw-1U-14" value="Content(nav = true)" style="rounded=1;whiteSpace=wrap;html=1;fillColor=#dae8fc;strokeColor=#6c8ebf;" vertex="1" parent="1">
          <mxGeometry x="590" y="80" width="120" height="60" as="geometry" />
        </mxCell>
        <mxCell id="LsbmYToU2O5M6cjVw-1U-33" value="" style="edgeStyle=orthogonalEdgeStyle;rounded=0;orthogonalLoop=1;jettySize=auto;html=1;" edge="1" parent="1" source="LsbmYToU2O5M6cjVw-1U-17" target="LsbmYToU2O5M6cjVw-1U-21">
          <mxGeometry relative="1" as="geometry" />
        </mxCell>
        <mxCell id="LsbmYToU2O5M6cjVw-1U-17" value="ContentMenu" style="rounded=1;whiteSpace=wrap;html=1;fillColor=#dae8fc;strokeColor=#6c8ebf;" vertex="1" parent="1">
          <mxGeometry x="450" y="190" width="120" height="60" as="geometry" />
        </mxCell>
        <mxCell id="LsbmYToU2O5M6cjVw-1U-21" value="Content(nav = true)" style="rounded=1;whiteSpace=wrap;html=1;fillColor=#dae8fc;strokeColor=#6c8ebf;" vertex="1" parent="1">
          <mxGeometry x="590" y="190" width="120" height="60" as="geometry" />
        </mxCell>
        <mxCell id="LsbmYToU2O5M6cjVw-1U-25" value="" style="edgeStyle=orthogonalEdgeStyle;rounded=0;orthogonalLoop=1;jettySize=auto;html=1;" edge="1" parent="1" source="LsbmYToU2O5M6cjVw-1U-22" target="LsbmYToU2O5M6cjVw-1U-24">
          <mxGeometry relative="1" as="geometry" />
        </mxCell>
        <mxCell id="LsbmYToU2O5M6cjVw-1U-22" value="Game" style="rounded=1;whiteSpace=wrap;html=1;fillColor=#dae8fc;strokeColor=#6c8ebf;" vertex="1" parent="1">
          <mxGeometry x="450" y="310" width="120" height="60" as="geometry" />
        </mxCell>
        <mxCell id="LsbmYToU2O5M6cjVw-1U-24" value="Quiz" style="rounded=1;whiteSpace=wrap;html=1;fillColor=#dae8fc;strokeColor=#6c8ebf;" vertex="1" parent="1">
          <mxGeometry x="590" y="310" width="120" height="60" as="geometry" />
        </mxCell>
        <mxCell id="LsbmYToU2O5M6cjVw-1U-27" value="Content(nav = true)" style="rounded=1;whiteSpace=wrap;html=1;fillColor=#dae8fc;strokeColor=#6c8ebf;" vertex="1" parent="1">
          <mxGeometry x="450" y="430" width="120" height="60" as="geometry" />
        </mxCell>
        <mxCell id="LsbmYToU2O5M6cjVw-1U-29" value="Content(nav = false)" style="rounded=1;whiteSpace=wrap;html=1;fillColor=#dae8fc;strokeColor=#6c8ebf;" vertex="1" parent="1">
          <mxGeometry x="450" y="550" width="120" height="60" as="geometry" />
        </mxCell>
        <mxCell id="LsbmYToU2O5M6cjVw-1U-35" value="Menu" style="rounded=1;whiteSpace=wrap;html=1;fillColor=#dae8fc;strokeColor=#6c8ebf;" vertex="1" parent="1">
          <mxGeometry x="150" y="80" width="120" height="60" as="geometry" />
        </mxCell>
      </root>
    </mxGraphModel>
  </diagram>
</mxfile>
